<mxfile host="app.diagrams.net" modified="2023-04-04T23:21:45.738Z" agent="Mozilla/5.0 (Windows NT 10.0; Win64; x64) AppleWebKit/537.36 (KHTML, like Gecko) Chrome/111.0.0.0 Safari/537.36" etag="Islu50x5EZtt0KYWweA3" version="21.1.4" type="google">
  <diagram id="C5RBs43oDa-KdzZeNtuy" name="Page-1">
    <mxGraphModel dx="1434" dy="796" grid="1" gridSize="10" guides="1" tooltips="1" connect="1" arrows="1" fold="1" page="1" pageScale="1" pageWidth="827" pageHeight="1169" math="0" shadow="0">
      <root>
        <mxCell id="WIyWlLk6GJQsqaUBKTNV-0" />
        <mxCell id="WIyWlLk6GJQsqaUBKTNV-1" parent="WIyWlLk6GJQsqaUBKTNV-0" />
        <mxCell id="uXIUITz8NTujo8jTFN1m-0" value="INICIO" style="text;html=1;strokeColor=none;fillColor=none;align=center;verticalAlign=middle;whiteSpace=wrap;rounded=0;" parent="WIyWlLk6GJQsqaUBKTNV-1" vertex="1">
          <mxGeometry x="50" y="30" width="60" height="30" as="geometry" />
        </mxCell>
        <mxCell id="uXIUITz8NTujo8jTFN1m-1" value="observar semaforo" style="text;html=1;strokeColor=none;fillColor=none;align=center;verticalAlign=middle;whiteSpace=wrap;rounded=0;" parent="WIyWlLk6GJQsqaUBKTNV-1" vertex="1">
          <mxGeometry x="50" y="90" width="60" height="30" as="geometry" />
        </mxCell>
        <mxCell id="uXIUITz8NTujo8jTFN1m-3" value="esta verde -si" style="text;html=1;strokeColor=none;fillColor=none;align=center;verticalAlign=middle;whiteSpace=wrap;rounded=0;" parent="WIyWlLk6GJQsqaUBKTNV-1" vertex="1">
          <mxGeometry x="50" y="175" width="60" height="30" as="geometry" />
        </mxCell>
        <mxCell id="uXIUITz8NTujo8jTFN1m-4" value="cruce" style="text;html=1;strokeColor=none;fillColor=none;align=center;verticalAlign=middle;whiteSpace=wrap;rounded=0;" parent="WIyWlLk6GJQsqaUBKTNV-1" vertex="1">
          <mxGeometry x="50" y="220" width="60" height="30" as="geometry" />
        </mxCell>
        <mxCell id="uXIUITz8NTujo8jTFN1m-5" value="observe semaforo" style="text;html=1;strokeColor=none;fillColor=none;align=center;verticalAlign=middle;whiteSpace=wrap;rounded=0;" parent="WIyWlLk6GJQsqaUBKTNV-1" vertex="1">
          <mxGeometry x="50" y="290" width="60" height="30" as="geometry" />
        </mxCell>
        <mxCell id="uXIUITz8NTujo8jTFN1m-7" value="esta verde -si" style="text;html=1;strokeColor=none;fillColor=none;align=center;verticalAlign=middle;whiteSpace=wrap;rounded=0;" parent="WIyWlLk6GJQsqaUBKTNV-1" vertex="1">
          <mxGeometry x="50" y="355" width="60" height="30" as="geometry" />
        </mxCell>
        <mxCell id="uXIUITz8NTujo8jTFN1m-9" value="cruce" style="text;html=1;strokeColor=none;fillColor=none;align=center;verticalAlign=middle;whiteSpace=wrap;rounded=0;" parent="WIyWlLk6GJQsqaUBKTNV-1" vertex="1">
          <mxGeometry x="50" y="420" width="60" height="30" as="geometry" />
        </mxCell>
        <mxCell id="uXIUITz8NTujo8jTFN1m-10" value="FIN" style="text;html=1;strokeColor=none;fillColor=none;align=center;verticalAlign=middle;whiteSpace=wrap;rounded=0;" parent="WIyWlLk6GJQsqaUBKTNV-1" vertex="1">
          <mxGeometry x="50" y="490" width="60" height="30" as="geometry" />
        </mxCell>
        <mxCell id="uXIUITz8NTujo8jTFN1m-15" style="edgeStyle=orthogonalEdgeStyle;rounded=0;orthogonalLoop=1;jettySize=auto;html=1;exitX=0.5;exitY=1;exitDx=0;exitDy=0;entryX=0.409;entryY=0;entryDx=0;entryDy=0;entryPerimeter=0;" parent="WIyWlLk6GJQsqaUBKTNV-1" source="uXIUITz8NTujo8jTFN1m-11" target="uXIUITz8NTujo8jTFN1m-13" edge="1">
          <mxGeometry relative="1" as="geometry" />
        </mxCell>
        <mxCell id="uXIUITz8NTujo8jTFN1m-11" value="" style="ellipse;whiteSpace=wrap;html=1;" parent="WIyWlLk6GJQsqaUBKTNV-1" vertex="1">
          <mxGeometry x="500" y="60" width="110" height="60" as="geometry" />
        </mxCell>
        <mxCell id="uXIUITz8NTujo8jTFN1m-12" value="INICIO" style="text;html=1;strokeColor=none;fillColor=none;align=center;verticalAlign=middle;whiteSpace=wrap;rounded=0;" parent="WIyWlLk6GJQsqaUBKTNV-1" vertex="1">
          <mxGeometry x="525" y="75" width="60" height="30" as="geometry" />
        </mxCell>
        <mxCell id="uXIUITz8NTujo8jTFN1m-16" style="edgeStyle=orthogonalEdgeStyle;rounded=0;orthogonalLoop=1;jettySize=auto;html=1;" parent="WIyWlLk6GJQsqaUBKTNV-1" source="uXIUITz8NTujo8jTFN1m-13" edge="1">
          <mxGeometry relative="1" as="geometry">
            <mxPoint x="565" y="280" as="targetPoint" />
          </mxGeometry>
        </mxCell>
        <mxCell id="uXIUITz8NTujo8jTFN1m-13" value="" style="rounded=0;whiteSpace=wrap;html=1;" parent="WIyWlLk6GJQsqaUBKTNV-1" vertex="1">
          <mxGeometry x="510" y="160" width="110" height="60" as="geometry" />
        </mxCell>
        <mxCell id="uXIUITz8NTujo8jTFN1m-14" value="observar semaforo" style="text;html=1;strokeColor=none;fillColor=none;align=center;verticalAlign=middle;whiteSpace=wrap;rounded=0;" parent="WIyWlLk6GJQsqaUBKTNV-1" vertex="1">
          <mxGeometry x="525" y="175" width="60" height="30" as="geometry" />
        </mxCell>
        <mxCell id="uXIUITz8NTujo8jTFN1m-22" style="edgeStyle=orthogonalEdgeStyle;rounded=0;orthogonalLoop=1;jettySize=auto;html=1;exitX=0;exitY=0.5;exitDx=0;exitDy=0;" parent="WIyWlLk6GJQsqaUBKTNV-1" source="uXIUITz8NTujo8jTFN1m-19" edge="1">
          <mxGeometry relative="1" as="geometry">
            <mxPoint x="480" y="320" as="targetPoint" />
          </mxGeometry>
        </mxCell>
        <mxCell id="uXIUITz8NTujo8jTFN1m-19" value="" style="rhombus;whiteSpace=wrap;html=1;" parent="WIyWlLk6GJQsqaUBKTNV-1" vertex="1">
          <mxGeometry x="525" y="280" width="80" height="80" as="geometry" />
        </mxCell>
        <mxCell id="uXIUITz8NTujo8jTFN1m-21" style="edgeStyle=orthogonalEdgeStyle;rounded=0;orthogonalLoop=1;jettySize=auto;html=1;" parent="WIyWlLk6GJQsqaUBKTNV-1" source="uXIUITz8NTujo8jTFN1m-20" edge="1">
          <mxGeometry relative="1" as="geometry">
            <mxPoint x="640" y="315" as="targetPoint" />
            <Array as="points">
              <mxPoint x="640" y="320" />
            </Array>
          </mxGeometry>
        </mxCell>
        <mxCell id="uXIUITz8NTujo8jTFN1m-20" value="esta verde" style="text;html=1;strokeColor=none;fillColor=none;align=center;verticalAlign=middle;whiteSpace=wrap;rounded=0;" parent="WIyWlLk6GJQsqaUBKTNV-1" vertex="1">
          <mxGeometry x="535" y="300" width="60" height="30" as="geometry" />
        </mxCell>
        <mxCell id="uXIUITz8NTujo8jTFN1m-23" value="si" style="text;html=1;strokeColor=none;fillColor=none;align=center;verticalAlign=middle;whiteSpace=wrap;rounded=0;" parent="WIyWlLk6GJQsqaUBKTNV-1" vertex="1">
          <mxGeometry x="585" y="300" width="60" height="30" as="geometry" />
        </mxCell>
        <mxCell id="uXIUITz8NTujo8jTFN1m-24" value="no" style="text;html=1;strokeColor=none;fillColor=none;align=center;verticalAlign=middle;whiteSpace=wrap;rounded=0;" parent="WIyWlLk6GJQsqaUBKTNV-1" vertex="1">
          <mxGeometry x="480" y="300" width="60" height="30" as="geometry" />
        </mxCell>
        <mxCell id="uXIUITz8NTujo8jTFN1m-30" style="edgeStyle=orthogonalEdgeStyle;rounded=0;orthogonalLoop=1;jettySize=auto;html=1;" parent="WIyWlLk6GJQsqaUBKTNV-1" source="uXIUITz8NTujo8jTFN1m-28" edge="1">
          <mxGeometry relative="1" as="geometry">
            <mxPoint x="690" y="390" as="targetPoint" />
          </mxGeometry>
        </mxCell>
        <mxCell id="uXIUITz8NTujo8jTFN1m-28" value="cruce" style="text;html=1;strokeColor=none;fillColor=none;align=center;verticalAlign=middle;whiteSpace=wrap;rounded=0;" parent="WIyWlLk6GJQsqaUBKTNV-1" vertex="1">
          <mxGeometry x="660" y="310" width="60" height="30" as="geometry" />
        </mxCell>
        <mxCell id="uXIUITz8NTujo8jTFN1m-35" style="edgeStyle=orthogonalEdgeStyle;rounded=0;orthogonalLoop=1;jettySize=auto;html=1;exitX=0.5;exitY=1;exitDx=0;exitDy=0;" parent="WIyWlLk6GJQsqaUBKTNV-1" source="uXIUITz8NTujo8jTFN1m-31" edge="1">
          <mxGeometry relative="1" as="geometry">
            <mxPoint x="690" y="510" as="targetPoint" />
          </mxGeometry>
        </mxCell>
        <mxCell id="uXIUITz8NTujo8jTFN1m-31" value="" style="rounded=0;whiteSpace=wrap;html=1;" parent="WIyWlLk6GJQsqaUBKTNV-1" vertex="1">
          <mxGeometry x="630" y="390" width="120" height="60" as="geometry" />
        </mxCell>
        <mxCell id="uXIUITz8NTujo8jTFN1m-32" value="observe semaforo" style="text;html=1;strokeColor=none;fillColor=none;align=center;verticalAlign=middle;whiteSpace=wrap;rounded=0;" parent="WIyWlLk6GJQsqaUBKTNV-1" vertex="1">
          <mxGeometry x="660" y="405" width="60" height="30" as="geometry" />
        </mxCell>
        <mxCell id="uXIUITz8NTujo8jTFN1m-33" value="" style="rounded=0;whiteSpace=wrap;html=1;" parent="WIyWlLk6GJQsqaUBKTNV-1" vertex="1">
          <mxGeometry x="645" y="295" width="120" height="60" as="geometry" />
        </mxCell>
        <mxCell id="uXIUITz8NTujo8jTFN1m-34" value="cruce" style="text;html=1;strokeColor=none;fillColor=none;align=center;verticalAlign=middle;whiteSpace=wrap;rounded=0;" parent="WIyWlLk6GJQsqaUBKTNV-1" vertex="1">
          <mxGeometry x="660" y="310" width="60" height="30" as="geometry" />
        </mxCell>
        <mxCell id="uXIUITz8NTujo8jTFN1m-38" style="edgeStyle=orthogonalEdgeStyle;rounded=0;orthogonalLoop=1;jettySize=auto;html=1;exitX=1;exitY=0.5;exitDx=0;exitDy=0;entryX=0;entryY=0.25;entryDx=0;entryDy=0;" parent="WIyWlLk6GJQsqaUBKTNV-1" source="uXIUITz8NTujo8jTFN1m-36" edge="1">
          <mxGeometry relative="1" as="geometry">
            <mxPoint x="780" y="535" as="targetPoint" />
            <Array as="points">
              <mxPoint x="780" y="540" />
            </Array>
          </mxGeometry>
        </mxCell>
        <mxCell id="uXIUITz8NTujo8jTFN1m-55" style="edgeStyle=orthogonalEdgeStyle;rounded=0;orthogonalLoop=1;jettySize=auto;html=1;exitX=0;exitY=0.5;exitDx=0;exitDy=0;" parent="WIyWlLk6GJQsqaUBKTNV-1" source="uXIUITz8NTujo8jTFN1m-36" edge="1">
          <mxGeometry relative="1" as="geometry">
            <mxPoint x="570" y="540" as="targetPoint" />
          </mxGeometry>
        </mxCell>
        <mxCell id="uXIUITz8NTujo8jTFN1m-36" value="" style="rhombus;whiteSpace=wrap;html=1;" parent="WIyWlLk6GJQsqaUBKTNV-1" vertex="1">
          <mxGeometry x="645" y="500" width="90" height="80" as="geometry" />
        </mxCell>
        <mxCell id="uXIUITz8NTujo8jTFN1m-37" value="esta verde" style="text;html=1;strokeColor=none;fillColor=none;align=center;verticalAlign=middle;whiteSpace=wrap;rounded=0;" parent="WIyWlLk6GJQsqaUBKTNV-1" vertex="1">
          <mxGeometry x="660" y="520" width="60" height="30" as="geometry" />
        </mxCell>
        <mxCell id="uXIUITz8NTujo8jTFN1m-40" value="si" style="text;html=1;strokeColor=none;fillColor=none;align=center;verticalAlign=middle;whiteSpace=wrap;rounded=0;" parent="WIyWlLk6GJQsqaUBKTNV-1" vertex="1">
          <mxGeometry x="730" y="520" width="60" height="30" as="geometry" />
        </mxCell>
        <mxCell id="uXIUITz8NTujo8jTFN1m-42" value="FIN" style="ellipse;whiteSpace=wrap;html=1;" parent="WIyWlLk6GJQsqaUBKTNV-1" vertex="1">
          <mxGeometry x="630" y="760" width="120" height="80" as="geometry" />
        </mxCell>
        <mxCell id="uXIUITz8NTujo8jTFN1m-46" value="" style="rounded=0;whiteSpace=wrap;html=1;" parent="WIyWlLk6GJQsqaUBKTNV-1" vertex="1">
          <mxGeometry x="780" y="520" width="120" height="60" as="geometry" />
        </mxCell>
        <mxCell id="uXIUITz8NTujo8jTFN1m-47" value="cruce" style="text;html=1;strokeColor=none;fillColor=none;align=center;verticalAlign=middle;whiteSpace=wrap;rounded=0;" parent="WIyWlLk6GJQsqaUBKTNV-1" vertex="1">
          <mxGeometry x="810" y="535" width="60" height="30" as="geometry" />
        </mxCell>
        <mxCell id="uXIUITz8NTujo8jTFN1m-48" value="" style="endArrow=none;html=1;rounded=0;exitX=0.65;exitY=0.025;exitDx=0;exitDy=0;exitPerimeter=0;" parent="WIyWlLk6GJQsqaUBKTNV-1" source="uXIUITz8NTujo8jTFN1m-42" edge="1">
          <mxGeometry width="50" height="50" relative="1" as="geometry">
            <mxPoint x="850" y="630" as="sourcePoint" />
            <mxPoint x="900" y="580" as="targetPoint" />
          </mxGeometry>
        </mxCell>
        <mxCell id="uXIUITz8NTujo8jTFN1m-52" value="" style="edgeStyle=orthogonalEdgeStyle;rounded=0;orthogonalLoop=1;jettySize=auto;html=1;" parent="WIyWlLk6GJQsqaUBKTNV-1" source="uXIUITz8NTujo8jTFN1m-49" target="uXIUITz8NTujo8jTFN1m-51" edge="1">
          <mxGeometry relative="1" as="geometry" />
        </mxCell>
        <mxCell id="uXIUITz8NTujo8jTFN1m-49" value="" style="rounded=0;whiteSpace=wrap;html=1;" parent="WIyWlLk6GJQsqaUBKTNV-1" vertex="1">
          <mxGeometry x="380" y="300" width="100" height="55" as="geometry" />
        </mxCell>
        <mxCell id="uXIUITz8NTujo8jTFN1m-50" value="no cruce" style="text;html=1;strokeColor=none;fillColor=none;align=center;verticalAlign=middle;whiteSpace=wrap;rounded=0;" parent="WIyWlLk6GJQsqaUBKTNV-1" vertex="1">
          <mxGeometry x="400" y="310" width="60" height="30" as="geometry" />
        </mxCell>
        <mxCell id="uXIUITz8NTujo8jTFN1m-51" value="" style="rounded=0;whiteSpace=wrap;html=1;" parent="WIyWlLk6GJQsqaUBKTNV-1" vertex="1">
          <mxGeometry x="200" y="300" width="100" height="55" as="geometry" />
        </mxCell>
        <mxCell id="uXIUITz8NTujo8jTFN1m-53" value="espere" style="text;html=1;strokeColor=none;fillColor=none;align=center;verticalAlign=middle;whiteSpace=wrap;rounded=0;" parent="WIyWlLk6GJQsqaUBKTNV-1" vertex="1">
          <mxGeometry x="210" y="310" width="60" height="30" as="geometry" />
        </mxCell>
        <mxCell id="uXIUITz8NTujo8jTFN1m-54" value="" style="endArrow=none;html=1;rounded=0;entryX=0;entryY=1;entryDx=0;entryDy=0;" parent="WIyWlLk6GJQsqaUBKTNV-1" target="uXIUITz8NTujo8jTFN1m-13" edge="1">
          <mxGeometry width="50" height="50" relative="1" as="geometry">
            <mxPoint x="200" y="300" as="sourcePoint" />
            <mxPoint x="250" y="250" as="targetPoint" />
          </mxGeometry>
        </mxCell>
        <mxCell id="uXIUITz8NTujo8jTFN1m-56" value="no" style="text;html=1;strokeColor=none;fillColor=none;align=center;verticalAlign=middle;whiteSpace=wrap;rounded=0;" parent="WIyWlLk6GJQsqaUBKTNV-1" vertex="1">
          <mxGeometry x="585" y="520" width="60" height="30" as="geometry" />
        </mxCell>
        <mxCell id="uXIUITz8NTujo8jTFN1m-57" value="" style="rounded=0;whiteSpace=wrap;html=1;" parent="WIyWlLk6GJQsqaUBKTNV-1" vertex="1">
          <mxGeometry x="460" y="510" width="110" height="50" as="geometry" />
        </mxCell>
        <mxCell id="uXIUITz8NTujo8jTFN1m-58" value="no cruce" style="text;html=1;strokeColor=none;fillColor=none;align=center;verticalAlign=middle;whiteSpace=wrap;rounded=0;" parent="WIyWlLk6GJQsqaUBKTNV-1" vertex="1">
          <mxGeometry x="480" y="520" width="60" height="30" as="geometry" />
        </mxCell>
        <mxCell id="uXIUITz8NTujo8jTFN1m-59" value="" style="endArrow=none;html=1;rounded=0;entryX=0;entryY=1;entryDx=0;entryDy=0;" parent="WIyWlLk6GJQsqaUBKTNV-1" target="uXIUITz8NTujo8jTFN1m-31" edge="1">
          <mxGeometry width="50" height="50" relative="1" as="geometry">
            <mxPoint x="460" y="510" as="sourcePoint" />
            <mxPoint x="510" y="460" as="targetPoint" />
          </mxGeometry>
        </mxCell>
      </root>
    </mxGraphModel>
  </diagram>
</mxfile>
